<svg width="20" height="22" viewBox="0 0 20 22" fill="none" xmlns="http://www.w3.org/2000/svg">
<path d="M7.49809 8.9376C7.46364 8.38639 6.98886 7.96747 6.43766 8.00192C5.88645 8.03637 5.46753 8.51114 5.50198 9.06235L6.00198 17.0624C6.03643 17.6136 6.5112 18.0325 7.06241 17.998C7.61362 17.9636 8.03254 17.4888 7.99809 16.9376L7.49809 8.9376Z" fill="black"/>
<path d="M14.4981 9.06235C14.5325 8.51114 14.1136 8.03637 13.5624 8.00192C13.0112 7.96747 12.5364 8.38639 12.502 8.9376L12.002 16.9376C11.9675 17.4888 12.3864 17.9636 12.9377 17.998C13.4889 18.0325 13.9636 17.6136 13.9981 17.0624L14.4981 9.06235Z" fill="black"/>
<path d="M11 8.99997C11 8.44769 10.5523 7.99997 10 7.99997C9.44775 7.99997 9.00003 8.44769 9.00003 8.99997V17C9.00003 17.5523 9.44775 18 10 18C10.5523 18 11 17.5523 11 17V8.99997Z" fill="black"/>
<path fill-rule="evenodd" clip-rule="evenodd" d="M9.16146 7.97061e-07H10.8385C11.3657 -1.61994e-05 11.8205 -3.08603e-05 12.195 0.0305721C12.5904 0.0628731 12.9836 0.134189 13.362 0.326983C13.9265 0.614603 14.3854 1.07354 14.673 1.63803C14.8658 2.01641 14.9371 2.40963 14.9694 2.80497C14.9969 3.14075 14.9997 3.54097 15 4H19C19.5523 4 20 4.44772 20 5C20 5.55229 19.5523 6 19 6H17.9394L17.2769 16.6015C17.2295 17.36 17.1902 17.9877 17.1173 18.4986C17.0414 19.0304 16.9195 19.5166 16.6629 19.9699C16.2637 20.6754 15.6596 21.243 14.9306 21.5974C14.4621 21.8251 13.9693 21.9165 13.4338 21.9591C12.9193 22 12.2904 22 11.5304 22H8.4696C7.70956 22 7.08069 22 6.56624 21.9591C6.03071 21.9165 5.53787 21.8251 5.06944 21.5974C4.34041 21.243 3.73626 20.6754 3.33705 19.9699C3.08054 19.5166 2.95859 19.0304 2.88268 18.4986C2.80975 17.9877 2.77054 17.3601 2.72314 16.6015L2.06055 6H1C0.447715 6 0 5.55229 0 5C0 4.44772 0.447715 4 1 4H5.00003C5.00031 3.54097 5.00314 3.14075 5.03057 2.80497C5.06287 2.40963 5.13419 2.01641 5.32698 1.63803C5.6146 1.07354 6.07354 0.614603 6.63803 0.326983C7.01641 0.134189 7.40963 0.0628731 7.80497 0.0305721C8.17953 -3.08603e-05 8.63433 -1.61994e-05 9.16146 7.97061e-07ZM12.9761 2.96784C12.9964 3.21698 12.9995 3.5349 12.9999 4H7.00007C7.00051 3.5349 7.00357 3.21698 7.02393 2.96784C7.04612 2.69618 7.0838 2.59546 7.10899 2.54601C7.20487 2.35785 7.35785 2.20487 7.54601 2.109C7.59545 2.0838 7.69617 2.04613 7.96784 2.02393C8.25117 2.00078 8.62345 2 9.2 2H10.8C11.3766 2 11.7488 2.00078 12.0322 2.02393C12.3038 2.04613 12.4045 2.0838 12.454 2.109C12.6422 2.20487 12.7951 2.35785 12.891 2.54601C12.9162 2.59546 12.9539 2.69618 12.9761 2.96784ZM4.06445 6H15.9355L15.2832 16.437C15.2327 17.2453 15.1977 17.7932 15.1374 18.216C15.0788 18.6267 15.0059 18.8372 14.9223 18.985C14.7227 19.3377 14.4206 19.6215 14.0561 19.7987C13.9034 19.8729 13.6888 19.9325 13.2752 19.9654C12.8494 19.9993 12.3005 20 11.4906 20H8.50936C7.69953 20 7.15055 19.9993 6.7248 19.9654C6.3112 19.9325 6.09656 19.8729 5.9439 19.7987C5.57938 19.6215 5.27731 19.3377 5.0777 18.985C4.9941 18.8372 4.92124 18.6267 4.86261 18.216C4.80226 17.7932 4.76728 17.2453 4.71676 16.437L4.06445 6Z" fill="black"/>
</svg>
