<svg width="40" height="40" viewBox="0 0 40 40" fill="none" xmlns="http://www.w3.org/2000/svg">
<path fill-rule="evenodd" clip-rule="evenodd" d="M11.8181 32.5207L17.6039 27.5615C18.9827 26.3797 21.0172 26.3797 22.3961 27.5615L28.1818 32.5207V6.90909C28.1818 6.00535 27.4491 5.27273 26.5454 5.27273H13.4545C12.5508 5.27273 11.8181 6.00535 11.8181 6.90909V32.5207ZM8.54541 6.90909V36.0785C8.54541 37.4766 10.1852 38.2308 11.2467 37.321L19.7337 30.0464C19.8869 29.9151 20.113 29.9151 20.2662 30.0464L28.7532 37.321C29.8147 38.2308 31.4545 37.4766 31.4545 36.0785V6.90909C31.4545 4.19788 29.2566 2 26.5454 2H13.4545C10.7433 2 8.54541 4.19787 8.54541 6.90909Z" fill="white"/>
</svg>
