<svg width="52" height="52" viewBox="0 0 52 52" fill="none" xmlns="http://www.w3.org/2000/svg">
<path d="M5 26C5 14.402 14.402 5 26 5V5C37.598 5 47 14.402 47 26V26C47 37.598 37.598 47 26 47V47C14.402 47 5 37.598 5 26V26Z" fill="#B8B8E0"/>
<path d="M26 1.5C39.531 1.5 50.5 12.469 50.5 26C50.5 39.531 39.531 50.5 26 50.5C12.469 50.5 1.5 39.531 1.5 26C1.5 12.469 12.469 1.5 26 1.5Z" stroke="#B8B8E0" stroke-width="3"/>
<path d="M23.3388 18.3373C23.4055 18.404 23.4287 18.5026 23.4009 18.5928C23.231 19.1437 23.1221 19.7092 23.0739 20.2787C23.0553 20.4994 22.7818 20.6087 22.6252 20.4521L19.1919 17.0188C18.9822 16.8091 18.8669 16.6949 18.7777 16.6192L18.7676 16.6107L18.7575 16.6192C18.6683 16.6949 18.553 16.8091 18.3433 17.0188L17.0188 18.3433C16.8091 18.553 16.695 18.6683 16.6192 18.7575L16.6107 18.7676L16.6192 18.7777C16.6949 18.8669 16.8091 18.9822 17.0188 19.1919L21.2015 23.3746C21.2992 23.4722 21.2992 23.6305 21.2015 23.7281L20.1409 24.7888C20.0432 24.8864 19.8849 24.8864 19.7873 24.7888L15.582 20.5835C15.4036 20.4051 15.2297 20.2313 15.0946 20.0721C14.9461 19.8972 14.7866 19.6753 14.6924 19.3856C14.5619 18.9839 14.5619 18.5512 14.6924 18.1496C14.7866 17.8598 14.9461 17.6379 15.0946 17.4631C15.2297 17.3039 15.4035 17.1301 15.582 16.9517L16.9517 15.582C17.1301 15.4035 17.3039 15.2297 17.4631 15.0946C17.638 14.9461 17.8599 14.7865 18.1496 14.6924C18.5513 14.5619 18.984 14.5619 19.3856 14.6924C19.6754 14.7865 19.8972 14.9461 20.0721 15.0946C20.2313 15.2297 20.4051 15.4035 20.5835 15.582L23.3388 18.3373Z" fill="black"/>
<path d="M33.6651 28.6636C33.5984 28.5969 33.4998 28.5737 33.4096 28.6015C32.8587 28.7714 32.2932 28.8803 31.7236 28.9285C31.503 28.9471 31.3936 29.2206 31.5502 29.3772L34.9812 32.8081C35.1909 33.0178 35.3051 33.1331 35.3808 33.2223L35.3893 33.2324L35.3808 33.2425C35.3051 33.3317 35.1909 33.447 34.9812 33.6567L33.6567 34.9812C33.447 35.1909 33.3317 35.3051 33.2426 35.3808L33.2324 35.3893L33.2223 35.3808C33.1331 35.3051 33.0178 35.1909 32.8082 34.9812L28.6262 30.7992C28.5285 30.7016 28.3702 30.7016 28.2726 30.7992L27.2119 31.8599C27.1143 31.9575 27.1143 32.1158 27.2119 32.2134L31.4165 36.418C31.5949 36.5965 31.7687 36.7703 31.9279 36.9054C32.1028 37.0539 32.3247 37.2134 32.6144 37.3076C33.0161 37.4381 33.4488 37.4381 33.8505 37.3076C34.1402 37.2135 34.3621 37.0539 34.5369 36.9054C34.6961 36.7703 34.8699 36.5965 35.0483 36.418L36.418 35.0483C36.5965 34.8699 36.7703 34.6961 36.9055 34.5369C37.0539 34.3621 37.2135 34.1402 37.3076 33.8504C37.4381 33.4488 37.4381 33.0161 37.3076 32.6144C37.2135 32.3247 37.0539 32.1028 36.9055 31.9279C36.7703 31.7687 36.5965 31.5949 36.418 31.4165L33.6651 28.6636Z" fill="black"/>
<path fill-rule="evenodd" clip-rule="evenodd" d="M36.6308 18.7644C36.5077 18.4503 36.2345 18.2195 35.9042 18.1505C35.574 18.0816 35.2313 18.1838 34.9927 18.4223L33.1646 20.2504C32.7741 20.6409 32.1409 20.6409 31.7504 20.2504C31.3599 19.8599 31.3599 19.2267 31.7504 18.8362L33.5779 17.0087C33.8165 16.7701 33.9187 16.4273 33.8496 16.097C33.7806 15.7667 33.5496 15.4935 33.2354 15.3705C31.0847 14.5282 28.5426 14.9744 26.802 16.7149C25.231 18.2859 24.7145 20.51 25.2481 22.5098L16.2555 31.5025C15.0839 32.674 15.0839 34.5735 16.2555 35.7451C17.427 36.9167 19.3265 36.9167 20.4981 35.7451L29.4898 26.7534C31.4903 27.2882 33.7156 26.7719 35.2873 25.2002C37.0285 23.459 37.4744 20.9156 36.6308 18.7644ZM34.5788 21.6646L35.0371 21.2063C34.9789 22.1462 34.5904 23.0687 33.8731 23.786C32.7141 24.945 31.0192 25.2455 29.5814 24.6817C29.2113 24.5365 28.7904 24.6244 28.5092 24.9056L19.0839 34.3309C18.6934 34.7214 18.0602 34.7214 17.6697 34.3309C17.2792 33.9404 17.2792 33.3072 17.6697 32.9167L27.0958 23.4906C27.3767 23.2096 27.4647 22.7889 27.3198 22.4189C26.757 20.9816 27.0578 19.2876 28.2162 18.1291C28.9328 17.4126 29.8541 17.0242 30.7929 16.9653L30.3362 17.422C29.1646 18.5936 29.1646 20.4931 30.3362 21.6646C31.5078 22.8362 33.4073 22.8362 34.5788 21.6646Z" fill="black"/>
</svg>
