<svg width="52" height="52" viewBox="0 0 52 52" fill="none" xmlns="http://www.w3.org/2000/svg">
<path d="M5 26C5 14.402 14.402 5 26 5V5C37.598 5 47 14.402 47 26V26C47 37.598 37.598 47 26 47V47C14.402 47 5 37.598 5 26V26Z" fill="#B8B8E0"/>
<path d="M26 1.5C39.531 1.5 50.5 12.469 50.5 26C50.5 39.531 39.531 50.5 26 50.5C12.469 50.5 1.5 39.531 1.5 26C1.5 12.469 12.469 1.5 26 1.5Z" stroke="#B8B8E0" stroke-width="3"/>
<path d="M23.4981 23.9376C23.4636 23.3864 22.9889 22.9675 22.4377 23.0019C21.8864 23.0364 21.4675 23.5111 21.502 24.0624L22.002 32.0624C22.0364 32.6136 22.5112 33.0325 23.0624 32.998C23.6136 32.9636 24.0325 32.4888 23.9981 31.9376L23.4981 23.9376Z" fill="black"/>
<path d="M30.4981 24.0624C30.5325 23.5111 30.1136 23.0364 29.5624 23.0019C29.0112 22.9675 28.5364 23.3864 28.502 23.9376L28.002 31.9376C27.9675 32.4888 28.3864 32.9636 28.9377 32.998C29.4889 33.0325 29.9636 32.6136 29.9981 32.0624L30.4981 24.0624Z" fill="black"/>
<path d="M27 24C27 23.4477 26.5523 23 26 23C25.4477 23 25 23.4477 25 24V32C25 32.5523 25.4477 33 26 33C26.5523 33 27 32.5523 27 32V24Z" fill="black"/>
<path fill-rule="evenodd" clip-rule="evenodd" d="M25.1615 15H26.8385C27.3657 15 27.8205 15 28.195 15.0306C28.5904 15.0629 28.9836 15.1342 29.362 15.327C29.9265 15.6146 30.3854 16.0735 30.673 16.638C30.8658 17.0164 30.9371 17.4096 30.9694 17.805C30.9969 18.1408 30.9997 18.541 31 19H35C35.5523 19 36 19.4477 36 20C36 20.5523 35.5523 21 35 21H33.9394L33.2769 31.6015C33.2295 32.36 33.1902 32.9877 33.1173 33.4986C33.0414 34.0304 32.9195 34.5166 32.6629 34.9699C32.2637 35.6754 31.6596 36.243 30.9306 36.5974C30.4621 36.8251 29.9693 36.9165 29.4338 36.9591C28.9193 37 28.2904 37 27.5304 37H24.4696C23.7096 37 23.0807 37 22.5662 36.9591C22.0307 36.9165 21.5379 36.8251 21.0694 36.5974C20.3404 36.243 19.7363 35.6754 19.337 34.9699C19.0805 34.5166 18.9586 34.0304 18.8827 33.4986C18.8098 32.9877 18.7705 32.3601 18.7231 31.6015L18.0605 21H17C16.4477 21 16 20.5523 16 20C16 19.4477 16.4477 19 17 19H21C21.0003 18.541 21.0031 18.1408 21.0306 17.805C21.0629 17.4096 21.1342 17.0164 21.327 16.638C21.6146 16.0735 22.0735 15.6146 22.638 15.327C23.0164 15.1342 23.4096 15.0629 23.805 15.0306C24.1795 15 24.6343 15 25.1615 15ZM28.9761 17.9678C28.9964 18.217 28.9995 18.5349 28.9999 19H23.0001C23.0005 18.5349 23.0036 18.217 23.0239 17.9678C23.0461 17.6962 23.0838 17.5955 23.109 17.546C23.2049 17.3579 23.3578 17.2049 23.546 17.109C23.5955 17.0838 23.6962 17.0461 23.9678 17.0239C24.2512 17.0008 24.6234 17 25.2 17H26.8C27.3766 17 27.7488 17.0008 28.0322 17.0239C28.3038 17.0461 28.4045 17.0838 28.454 17.109C28.6422 17.2049 28.7951 17.3579 28.891 17.546C28.9162 17.5955 28.9539 17.6962 28.9761 17.9678ZM20.0644 21H31.9355L31.2832 31.437C31.2327 32.2453 31.1977 32.7932 31.1374 33.216C31.0788 33.6267 31.0059 33.8372 30.9223 33.985C30.7227 34.3377 30.4206 34.6215 30.0561 34.7987C29.9034 34.8729 29.6888 34.9325 29.2752 34.9654C28.8494 34.9993 28.3005 35 27.4906 35H24.5094C23.6995 35 23.1506 34.9993 22.7248 34.9654C22.3112 34.9325 22.0966 34.8729 21.9439 34.7987C21.5794 34.6215 21.2773 34.3377 21.0777 33.985C20.9941 33.8372 20.9212 33.6267 20.8626 33.216C20.8023 32.7932 20.7673 32.2453 20.7168 31.437L20.0644 21Z" fill="black"/>
</svg>
