<svg width="24" height="25" viewBox="0 0 24 25" fill="none" xmlns="http://www.w3.org/2000/svg">
<path d="M15.2929 10.2929C14.9024 10.6834 14.9024 11.3166 15.2929 11.7071L16.5858 13L15.2929 14.2929C14.9024 14.6834 14.9024 15.3166 15.2929 15.7071C15.6834 16.0976 16.3166 16.0976 16.7071 15.7071L18.7071 13.7071C19.0976 13.3166 19.0976 12.6834 18.7071 12.2929L16.7071 10.2929C16.3166 9.90237 15.6834 9.90237 15.2929 10.2929Z" fill="#E4DAD7"/>
<path d="M8.70711 11.7071C9.09763 11.3166 9.09763 10.6834 8.70711 10.2929C8.31658 9.90237 7.68342 9.90237 7.29289 10.2929L5.29289 12.2929C4.90237 12.6834 4.90237 13.3166 5.29289 13.7071L7.29289 15.7071C7.68342 16.0976 8.31658 16.0976 8.70711 15.7071C9.09763 15.3166 9.09763 14.6834 8.70711 14.2929L7.41421 13L8.70711 11.7071Z" fill="#E4DAD7"/>
<path fill-rule="evenodd" clip-rule="evenodd" d="M19 23.5C20.4001 23.5 21.1002 23.5 21.635 23.2275C22.1054 22.9878 22.4878 22.6054 22.7275 22.135C23 21.6002 23 20.9001 23 19.5V5.5C23 4.09987 23 3.3998 22.7275 2.86502C22.4878 2.39462 22.1054 2.01217 21.635 1.77248C21.1002 1.5 20.4001 1.5 19 1.5H5C3.59987 1.5 2.8998 1.5 2.36502 1.77248C1.89462 2.01217 1.51217 2.39462 1.27248 2.86502C1 3.3998 1 4.09987 1 5.5V19.5C1 20.9001 1 21.6002 1.27248 22.135C1.51217 22.6054 1.89462 22.9878 2.36502 23.2275C2.8998 23.5 3.59987 23.5 5 23.5H19ZM13 3.5H19C19.7331 3.5 20.1626 3.50156 20.4791 3.52742C20.6393 3.5405 20.7168 3.55673 20.7441 3.56365C20.8247 3.60874 20.8913 3.67528 20.9364 3.75587C20.9433 3.78322 20.9595 3.86073 20.9726 4.02087C20.9984 4.33742 21 4.76693 21 5.5V19.5C21 20.2331 20.9984 20.6626 20.9726 20.9791C20.9595 21.1393 20.9433 21.2168 20.9364 21.2441C20.8913 21.3247 20.8247 21.3913 20.7441 21.4363C20.7168 21.4433 20.6393 21.4595 20.4791 21.4726C20.1626 21.4984 19.7331 21.5 19 21.5H13L13 3.5ZM11 3.5H5C4.26693 3.5 3.83742 3.50156 3.52087 3.52742C3.36072 3.5405 3.28321 3.55673 3.25587 3.56365C3.17528 3.60874 3.10874 3.67528 3.06365 3.75587C3.05673 3.78321 3.0405 3.86072 3.02742 4.02087C3.00156 4.33742 3 4.76693 3 5.5V19.5C3 20.2331 3.00156 20.6626 3.02742 20.9791C3.0405 21.1393 3.05673 21.2168 3.06365 21.2441C3.10874 21.3247 3.17528 21.3913 3.25587 21.4364C3.28321 21.4433 3.36072 21.4595 3.52087 21.4726C3.83742 21.4984 4.26693 21.5 5 21.5H11L11 3.5Z" fill="#E4DAD7"/>
</svg>
