<svg width="24" height="24" viewBox="0 0 24 24" fill="none" xmlns="http://www.w3.org/2000/svg">
<path fill-rule="evenodd" clip-rule="evenodd" d="M12.5586 3.66151C12.2067 3.48555 11.7925 3.48555 11.4406 3.66151L1.99958 8.382C1.07827 8.84265 1.07826 10.1574 1.99958 10.6181L11.4406 15.3386C11.7925 15.5145 12.2067 15.5145 12.5586 15.3386L21.9996 10.6181C22.9209 10.1574 22.9209 8.84266 21.9996 8.382L12.5586 3.66151ZM4.23564 9.50003L11.9996 5.61807L19.7635 9.50003L11.9996 13.382L4.23564 9.50003Z" fill="#4496FF"/>
<path d="M2.44743 13.1056C1.95345 12.8586 1.35278 13.0588 1.10579 13.5528C0.858803 14.0468 1.05903 14.6475 1.55301 14.8945L11.4412 19.8386C11.7931 20.0145 12.2073 20.0145 12.5592 19.8386L22.4474 14.8945C22.9414 14.6475 23.1416 14.0468 22.8946 13.5528C22.6477 13.0588 22.047 12.8586 21.553 13.1056L12.0002 17.882L2.44743 13.1056Z" fill="#4496FF"/>
</svg>
