<svg width="24" height="24" viewBox="0 0 24 24" fill="none" xmlns="http://www.w3.org/2000/svg">
<path fill-rule="evenodd" clip-rule="evenodd" d="M5.63604 2.29289C6.02656 2.68342 6.02656 3.31658 5.63604 3.70711C2.12132 7.22183 2.12132 12.9203 5.63604 16.435C6.02656 16.8256 6.02656 17.4587 5.63604 17.8492C5.24551 18.2398 4.61235 18.2398 4.22183 17.8492C-0.0739417 13.5535 -0.0739417 6.58866 4.22183 2.29289C4.61235 1.90237 5.24551 1.90237 5.63604 2.29289ZM18.3644 2.29289C18.7549 1.90237 19.3881 1.90237 19.7786 2.29289C24.0744 6.58866 24.0744 13.5535 19.7786 17.8492C19.3881 18.2398 18.7549 18.2398 18.3644 17.8492C17.9739 17.4587 17.9739 16.8256 18.3644 16.435C21.8791 12.9203 21.8791 7.22183 18.3644 3.70711C17.9739 3.31658 17.9739 2.68342 18.3644 2.29289ZM8.46469 5.12126C8.85521 5.51179 8.85521 6.14495 8.46469 6.53548C6.51207 8.4881 6.51207 11.6539 8.46469 13.6065C8.85521 13.9971 8.85521 14.6302 8.46469 15.0208C8.07416 15.4113 7.441 15.4113 7.05047 15.0208C4.3168 12.2871 4.3168 7.85493 7.05047 5.12126C7.441 4.73074 8.07416 4.73074 8.46469 5.12126ZM15.5358 5.12126C15.9263 4.73074 16.5595 4.73074 16.95 5.12126C19.6837 7.85493 19.6837 12.2871 16.95 15.0208C16.5595 15.4113 15.9263 15.4113 15.5358 15.0208C15.1453 14.6302 15.1453 13.9971 15.5358 13.6065C17.4884 11.6539 17.4884 8.4881 15.5358 6.53548C15.1453 6.14495 15.1453 5.51179 15.5358 5.12126ZM12.0002 9.07104C11.4479 9.07104 11.0002 9.51876 11.0002 10.071C11.0002 10.6233 11.4479 11.071 12.0002 11.071C12.5525 11.071 13.0002 10.6233 13.0002 10.071C13.0002 9.51876 12.5525 9.07104 12.0002 9.07104ZM9.00022 10.071C9.00022 8.41419 10.3434 7.07104 12.0002 7.07104C13.6571 7.07104 15.0002 8.41419 15.0002 10.071C15.0002 11.3773 14.1654 12.4885 13.0002 12.9003V21.071C13.0002 21.6233 12.5525 22.071 12.0002 22.071C11.4479 22.071 11.0002 21.6233 11.0002 21.071V12.9003C9.83503 12.4885 9.00022 11.3773 9.00022 10.071Z" fill="#4496FF"/>
</svg>
