<svg width="88" height="88" viewBox="0 0 88 88" fill="none" xmlns="http://www.w3.org/2000/svg">
<path d="M0 44C0 19.6995 19.6995 0 44 0C68.3005 0 88 19.6995 88 44C88 68.3005 68.3005 88 44 88C19.6995 88 0 68.3005 0 44Z" fill="#02070D"/>
<path d="M8 44C8 24.1178 24.1178 8 44 8C63.8823 8 80 24.1178 80 44C80 63.8823 63.8823 80 44 80C24.1178 80 8 63.8823 8 44Z" fill="#0070FF"/>
<path d="M42.7145 32.4286C42.7145 31.7185 43.2901 31.1429 44.0002 31.1429C44.7103 31.1429 45.2859 31.7185 45.2859 32.4286V42.7143H55.3132C56.0233 42.7143 56.5989 43.2899 56.5989 44C56.5989 44.7101 56.0233 45.2857 55.3132 45.2857H45.2859V55.313C45.2859 56.0231 44.7103 56.5987 44.0002 56.5987C43.2901 56.5987 42.7145 56.0231 42.7145 55.313V45.2857H32.4288C31.7187 45.2857 31.1431 44.7101 31.1431 44C31.1431 43.2899 31.7187 42.7143 32.4288 42.7143H42.7145V32.4286Z" fill="black"/>
<path d="M44.0002 2.64288C66.841 2.64304 85.3567 21.1595 85.3567 44.0003C85.3565 66.841 66.8409 85.3566 44.0002 85.3568C21.1594 85.3568 2.64297 66.8411 2.64282 44.0003C2.64282 21.1594 21.1593 2.64288 44.0002 2.64288Z" stroke="#0070FF" stroke-width="3"/>
</svg>
