<svg width="88" height="88" viewBox="0 0 88 88" fill="none" xmlns="http://www.w3.org/2000/svg">
<path d="M0 44C0 19.6995 19.6995 0 44 0C68.3005 0 88 19.6995 88 44C88 68.3005 68.3005 88 44 88C19.6995 88 0 68.3005 0 44Z" fill="#02070D"/>
<path d="M8 44C8 24.1178 24.1178 8 44 8C63.8823 8 80 24.1178 80 44C80 63.8823 63.8823 80 44 80C24.1178 80 8 63.8823 8 44Z" fill="#0070FF"/>
<g clip-path="url(#clip0_82_571)">
<path d="M41.3061 36.7576C42.0145 37.6643 43.3237 37.8251 44.2304 37.1167C45.1371 36.4083 45.2978 35.099 44.5895 34.1924L42.2443 31.1907L45.5234 31.5933C53.5175 32.5748 59.2023 39.8511 58.2207 47.8452C57.2392 55.8393 49.963 61.5241 41.9688 60.5425C33.9747 59.561 28.2899 52.2848 29.2715 44.2907C29.4117 43.1486 28.5996 42.1092 27.4576 41.969C26.3155 41.8287 25.2761 42.6408 25.1359 43.7829C23.8739 54.061 31.1829 63.4162 41.4611 64.6782C51.7392 65.9402 61.0943 58.6311 62.3563 48.353C63.6183 38.0748 56.3093 28.7197 46.0312 27.4577L42.7521 27.055L45.7538 24.7099C46.6604 24.0015 46.8212 22.6922 46.1128 21.7855C45.4044 20.8789 44.0952 20.7181 43.1885 21.4265L36.2234 26.8682C35.3167 27.5766 35.156 28.8858 35.8644 29.7925L41.3061 36.7576Z" fill="black" fill-opacity="0.62"/>
</g>
<path d="M44.0002 2.64282C66.841 2.64297 85.3567 21.1594 85.3567 44.0002C85.3565 66.8409 66.8409 85.3565 44.0002 85.3567C21.1594 85.3567 2.64297 66.841 2.64282 44.0002C2.64282 21.1593 21.1593 2.64282 44.0002 2.64282Z" stroke="#0070FF" stroke-width="3"/>
<defs>
<clipPath id="clip0_82_571">
<rect width="50" height="50" fill="white" transform="matrix(-0.992546 -0.121869 -0.121869 0.992546 71.8604 22.2332)"/>
</clipPath>
</defs>
</svg>
