<svg width="25" height="24" viewBox="0 0 25 24" fill="none" xmlns="http://www.w3.org/2000/svg">
<g clip-path="url(#clip0_41_90)">
<path fill-rule="evenodd" clip-rule="evenodd" d="M12.5 8C10.2909 8 8.5 9.79086 8.5 12C8.5 14.2091 10.2909 16 12.5 16C14.7091 16 16.5 14.2091 16.5 12C16.5 9.79086 14.7091 8 12.5 8ZM10.5 12C10.5 10.8954 11.3954 10 12.5 10C13.6046 10 14.5 10.8954 14.5 12C14.5 13.1046 13.6046 14 12.5 14C11.3954 14 10.5 13.1046 10.5 12Z" fill="#4496FF"/>
<path fill-rule="evenodd" clip-rule="evenodd" d="M12.0917 0C10.5988 0 9.33302 1.09779 9.12189 2.57574L8.98684 3.52106L8.22188 2.94735C7.02752 2.05157 5.35623 2.17035 4.30056 3.22603L3.72318 3.8034C2.66751 4.85908 2.54873 6.53036 3.4445 7.72472L4.01657 8.48748L3.07574 8.62189C1.59779 8.83302 0.5 10.0988 0.5 11.5917V12.4083C0.5 13.9012 1.59779 15.167 3.07574 15.3781L4.01857 15.5128L3.44675 16.2752C2.55097 17.4696 2.66975 19.1409 3.72543 20.1966L4.3028 20.7739C5.35848 21.8296 7.02976 21.9484 8.22412 21.0526L8.98705 20.4804L9.12189 21.4243C9.33302 22.9022 10.5988 24 12.0917 24H12.9083C14.4012 24 15.667 22.9022 15.8781 21.4243L16.0126 20.4828L16.7724 21.0526C17.9668 21.9484 19.6381 21.8296 20.6937 20.774L21.2711 20.1966C22.3268 19.1409 22.4456 17.4696 21.5498 16.2753L20.9783 15.5133L21.9243 15.3781C23.4022 15.167 24.5 13.9012 24.5 12.4083V11.5917C24.5 10.0988 23.4022 8.83302 21.9243 8.62189L20.9803 8.48703L21.552 7.72469C22.4478 6.53032 22.329 4.85904 21.2734 3.80337L20.696 3.22599C19.6403 2.17031 17.969 2.05154 16.7747 2.94731L16.0128 3.51869L15.8781 2.57574C15.667 1.09779 14.4012 0 12.9083 0H12.0917ZM11.1018 2.85858C11.1722 2.36593 11.5941 2 12.0917 2H12.9083C13.4059 2 13.8278 2.36593 13.8982 2.85858L14.1449 4.58547C14.1978 4.95554 14.4526 5.26522 14.8056 5.3883C15.0585 5.47646 15.3048 5.57876 15.5436 5.69427C15.8803 5.85714 16.2798 5.81847 16.579 5.59405L17.9747 4.54731C18.3728 4.24872 18.9299 4.28831 19.2818 4.6402L19.8591 5.21758C20.211 5.56947 20.2506 6.12657 19.952 6.52469L18.9055 7.92007C18.6811 8.21934 18.6424 8.61886 18.8053 8.95561C18.921 9.19466 19.0234 9.44123 19.1117 9.69437C19.2348 10.0474 19.5445 10.3022 19.9145 10.3551L21.6414 10.6018C22.1341 10.6722 22.5 11.0941 22.5 11.5917V12.4083C22.5 12.9059 22.1341 13.3278 21.6414 13.3982L19.9145 13.6449C19.5445 13.6978 19.2348 13.9526 19.1117 14.3056C19.0232 14.5593 18.9206 14.8064 18.8046 15.046C18.6415 15.3827 18.6801 15.7824 18.9046 16.0817L19.9498 17.4753C20.2484 17.8734 20.2088 18.4305 19.8569 18.7824L19.2795 19.3597C18.9276 19.7116 18.3705 19.7512 17.9724 19.4526L16.5777 18.4066C16.2785 18.1822 15.8791 18.1435 15.5424 18.3063C15.304 18.4216 15.0581 18.5237 14.8056 18.6117C14.4526 18.7348 14.1978 19.0445 14.1449 19.4145L13.8982 21.1414C13.8278 21.6341 13.4059 22 12.9083 22H12.0917C11.5941 22 11.1722 21.6341 11.1018 21.1414L10.8551 19.4145C10.8022 19.0445 10.5474 18.7348 10.1944 18.6117C9.94127 18.5235 9.69473 18.421 9.45571 18.3054C9.11896 18.1425 8.71945 18.1811 8.42018 18.4056L7.02412 19.4526C6.626 19.7512 6.06891 19.7116 5.71702 19.3597L5.13964 18.7823C4.78775 18.4304 4.74816 17.8734 5.04675 17.4752L6.09399 16.0789C6.31842 15.7797 6.35708 15.3802 6.19422 15.0435C6.07873 14.8047 5.97645 14.5584 5.8883 14.3056C5.76522 13.9526 5.45554 13.6978 5.08547 13.6449L3.35858 13.3982C2.86593 13.3278 2.5 12.9059 2.5 12.4083V11.5917C2.5 11.0941 2.86593 10.6722 3.35858 10.6018L5.08547 10.3551C5.45554 10.3022 5.76522 10.0474 5.8883 9.69438C5.97626 9.4421 6.07829 9.19636 6.19347 8.95807C6.3562 8.62139 6.3175 8.22204 6.09313 7.92289L5.0445 6.52472C4.74591 6.1266 4.7855 5.56951 5.1374 5.21761L5.71477 4.64024C6.06666 4.28835 6.62376 4.24876 7.02188 4.54735L8.41885 5.59508C8.71817 5.81957 9.11777 5.85819 9.45455 5.69517C9.69394 5.5793 9.94086 5.47669 10.1944 5.3883C10.5474 5.26522 10.8022 4.95554 10.8551 4.58547L11.1018 2.85858Z" fill="#4496FF"/>
</g>
<defs>
<clipPath id="clip0_41_90">
<rect width="24" height="24" fill="white" transform="translate(0.5)"/>
</clipPath>
</defs>
</svg>
