<svg width="24" height="24" viewBox="0 0 24 24" fill="none" xmlns="http://www.w3.org/2000/svg">
<path d="M22.2451 9.68788C22.5454 9.30418 22.5103 8.76931 22.1443 8.44764C19.4369 6.068 15.8862 4.625 11.9984 4.625C8.11058 4.625 4.55982 6.068 1.85246 8.44763C1.48648 8.76931 1.45139 9.30414 1.75179 9.68777C1.88028 9.85187 1.98553 9.98544 1.99854 10L2.35382 10.3617C2.74357 10.7585 3.37985 10.7577 3.80276 10.3964C6.00821 8.51251 8.87045 7.375 11.9984 7.375C15.1263 7.375 17.9886 8.51255 20.1941 10.3965C20.617 10.7577 21.2532 10.7586 21.6429 10.3619L21.9985 10C22.0115 9.98544 22.1167 9.85193 22.2451 9.68788Z" fill="#4496FF"/>
<path d="M18.1493 14.2022C18.4971 13.8126 18.4901 13.2162 18.0934 12.8765C16.4544 11.4728 14.3254 10.625 11.9984 10.625C9.67132 10.625 7.5423 11.4728 5.90335 12.8765C5.50667 13.2162 5.4996 13.8126 5.84747 14.2022L6.32721 14.7395C6.72388 15.1837 7.4161 15.1785 7.88257 14.8083C9.01291 13.911 10.4431 13.375 11.9984 13.375C13.5537 13.375 14.9838 13.911 16.1142 14.8083C16.5806 15.1785 17.2729 15.1837 17.6695 14.7395L18.1493 14.2022Z" fill="#4496FF"/>
<path d="M13.9584 18.8957C14.2643 18.553 14.3077 18.031 13.9603 17.7304C13.4344 17.2753 12.7485 17 11.9984 17C11.2482 17 10.5624 17.2753 10.0364 17.7304C9.68901 18.031 9.73242 18.553 10.0384 18.8957L11.1091 20.0948C11.34 20.3534 11.6617 20.5 11.9984 20.5C12.335 20.5 12.6567 20.3534 12.8876 20.0948L13.9584 18.8957Z" fill="#4496FF"/>
</svg>
