<svg width="24" height="24" viewBox="0 0 24 24" fill="none" xmlns="http://www.w3.org/2000/svg">
<path d="M10.039 1.67236C11.1653 0.699655 12.8346 0.699656 13.9609 1.67236L23.6533 10.0435C24.0712 10.4044 24.1176 11.0356 23.7568 11.4536C23.3958 11.8715 22.7646 11.9179 22.3466 11.5571L20.9999 10.394V19.0005C20.9998 21.2095 19.209 23.0005 16.9999 23.0005H6.99994C4.79091 23.0005 3.00007 21.2095 2.99994 19.0005V10.394L1.65326 11.5571C1.23528 11.9179 0.604029 11.8715 0.243103 11.4536C-0.117705 11.0356 -0.0712734 10.4044 0.346619 10.0435L10.039 1.67236ZM12.6533 3.18604C12.2779 2.86203 11.722 2.86203 11.3466 3.18604L4.99994 8.6665V19.0005C5.00007 20.1049 5.89548 21.0005 6.99994 21.0005H9.99994V15.0005C9.99994 14.4482 10.4477 14.0005 10.9999 14.0005H12.9999C13.5522 14.0005 13.9999 14.4482 13.9999 15.0005V21.0005H16.9999C18.1044 21.0005 18.9998 20.1049 18.9999 19.0005V8.6665L12.6533 3.18604Z" fill="#4496FF"/>
</svg>
